<?xml version="1.0" standalone="no"?>
<!DOCTYPE svg PUBLIC "-//W3C//DTD SVG 20010904//EN"
 "http://www.w3.org/TR/2001/REC-SVG-20010904/DTD/svg10.dtd">
<svg version="1.0" xmlns="http://www.w3.org/2000/svg"
 width="512.000000pt" height="512.000000pt" viewBox="0 0 512.000000 512.000000"
 preserveAspectRatio="xMidYMid meet">
<metadata>
Created by potrace 1.11, written by Peter Selinger 2001-2013
</metadata>
<g transform="translate(0.000000,512.000000) scale(0.100000,-0.100000)"
fill="#000000" stroke="none">
<path d="M2395 4994 c-11 -2 -69 -8 -130 -14 -60 -7 -119 -14 -130 -17 -11 -2
-32 -6 -48 -8 -75 -11 -255 -61 -371 -102 -620 -223 -1133 -695 -1407 -1298
-74 -164 -167 -470 -184 -610 -3 -27 -8 -64 -11 -80 -20 -130 -25 -418 -10
-565 47 -456 228 -902 512 -1267 66 -84 250 -276 324 -338 109 -91 145 -118
243 -184 127 -85 295 -175 433 -232 55 -22 106 -42 114 -44 8 -2 42 -13 75
-23 154 -51 354 -90 543 -107 76 -6 328 -7 372 -1 14 2 61 7 105 12 44 4 82 8
85 9 3 0 28 5 55 10 28 5 52 9 55 10 3 0 23 5 45 10 22 5 42 9 45 10 3 1 23 5
45 10 49 11 47 10 65 18 8 3 40 13 70 22 161 50 406 161 518 236 24 16 45 29
48 29 16 0 315 227 330 251 3 5 10 7 15 3 5 -3 8 -1 7 3 -4 12 152 169 164
165 5 -1 7 1 4 6 -8 13 45 73 57 65 5 -3 7 -1 3 5 -3 5 6 25 21 44 16 18 31
38 35 43 4 6 18 24 31 40 82 106 204 322 271 478 68 159 139 397 161 537 4 25
9 53 11 64 27 145 26 597 -2 741 -2 11 -9 45 -15 75 -5 30 -12 64 -14 75 -1
11 -15 64 -29 119 -80 300 -254 640 -458 893 -60 75 -230 251 -313 323 -184
161 -486 339 -728 430 -103 38 -332 103 -407 114 -19 3 -46 8 -60 11 -13 2
-40 7 -60 9 -19 3 -60 8 -90 12 -52 7 -352 12 -395 8z m289 -883 c17 -26 21
-210 19 -811 -2 -366 -4 -741 -5 -835 -2 -193 9 -500 26 -770 5 -73 9 -117 22
-215 2 -19 6 -53 9 -75 2 -22 13 -80 23 -130 32 -150 15 -247 -47 -279 -46
-24 -115 -30 -149 -12 -64 33 -77 185 -33 391 12 55 25 141 29 190 9 117 8
633 -1 800 -13 229 -16 238 -77 306 -29 32 -50 64 -51 79 -1 14 -2 219 -3 455
-1 401 4 559 19 645 18 108 73 214 128 249 33 21 82 28 91 12z m855 -416 c135
-25 226 -138 253 -315 13 -86 16 -265 5 -332 -16 -93 -78 -227 -184 -396 -57
-90 -67 -112 -72 -165 -6 -59 -6 -496 -1 -1167 1 -168 1 -310 1 -316 -3 -32
-114 -46 -171 -22 l-35 15 1 749 c0 863 8 791 -103 951 -115 166 -154 288
-155 488 -1 150 14 237 58 330 72 151 213 214 403 180z m-2094 -250 c3 -33 8
-70 10 -81 3 -20 7 -55 20 -159 2 -16 9 -76 15 -132 7 -57 13 -111 15 -120 2
-10 4 -34 4 -53 1 -44 35 -102 55 -94 20 8 34 49 41 119 3 33 8 74 10 90 2 17
7 53 10 80 3 28 7 66 10 85 12 91 18 140 29 245 4 33 9 70 12 82 2 12 7 48 10
80 7 77 9 91 15 98 3 3 6 -1 6 -7 0 -21 13 -136 29 -258 8 -63 17 -137 19
-164 3 -28 7 -57 9 -65 3 -9 8 -47 11 -85 3 -38 7 -71 9 -75 2 -3 7 -39 10
-79 8 -84 17 -112 41 -132 15 -13 20 -11 41 13 13 16 24 38 25 50 0 12 2 29 3
37 2 8 6 44 10 80 7 63 32 265 41 325 2 17 7 59 11 95 3 36 8 67 10 71 1 3 6
38 10 79 4 40 10 85 14 99 8 24 8 24 10 -9 1 -34 3 -48 14 -135 5 -36 10 -74
20 -160 3 -16 7 -61 11 -100 4 -38 9 -78 11 -89 2 -10 6 -44 10 -75 3 -31 8
-65 11 -76 3 -11 7 -92 9 -180 l4 -160 -49 -75 c-28 -41 -55 -80 -60 -87 -6
-7 -11 -16 -11 -20 0 -4 -14 -24 -30 -43 -16 -19 -42 -60 -57 -90 l-27 -55 -1
-625 c-1 -435 -4 -631 -12 -645 -27 -49 -63 -70 -121 -72 -71 -2 -116 17 -142
59 -19 32 -20 49 -20 648 l0 615 -28 60 c-16 33 -40 74 -54 90 -14 17 -58 77
-98 135 l-73 105 0 115 c0 94 19 298 38 420 4 26 11 85 20 168 3 26 7 63 10
82 6 44 16 127 19 160 2 14 4 34 6 45 2 18 18 -83 35 -230z"/>
</g>
</svg>
